<svg xmlns="http://www.w3.org/2000/svg" viewBox="0 0 20.1 16.1">
  <defs>
    <style>
      .cls-1 {
        fill: #fff;
      }
    </style>
  </defs>
  <path id="Path_227289" data-name="Path 227289" class="cls-1" d="M46.2,2.8a8.648,8.648,0,0,1-2.3.6,4.181,4.181,0,0,0,1.8-2.3,8.247,8.247,0,0,1-2.6,1,3.991,3.991,0,0,0-3-1.3A4.055,4.055,0,0,0,36,4.9a2.769,2.769,0,0,0,.1.9,11.555,11.555,0,0,1-8.4-4.3,3.7,3.7,0,0,0-.6,2.1A4.038,4.038,0,0,0,28.9,7,4.136,4.136,0,0,1,27,6.5v.1a4.074,4.074,0,0,0,3.3,4,3.75,3.75,0,0,1-1.1.1,2.2,2.2,0,0,1-.8-.1,3.992,3.992,0,0,0,3.8,2.8,8.324,8.324,0,0,1-5.1,1.8,3.4,3.4,0,0,1-1-.1,11.322,11.322,0,0,0,6.3,1.8A11.513,11.513,0,0,0,44,5.3V4.8A6.012,6.012,0,0,0,46.2,2.8Z" transform="translate(-26.1 -0.8)"/>
</svg>
