<svg xmlns="http://www.w3.org/2000/svg" viewBox="0 0 19.9 19.9">
  <defs>
    <style>
      .cls-1 {
        fill: #fff;
      }
    </style>
  </defs>
  <path id="Path_227290" data-name="Path 227290" class="cls-1" d="M6.633,9.947a3.317,3.317,0,1,1,3.314,3.314A3.314,3.314,0,0,1,6.633,9.947m-1.792,0A5.111,5.111,0,1,0,9.953,4.836,5.112,5.112,0,0,0,4.842,9.947m9.227-5.309a1.193,1.193,0,1,0,1.193-1.193,1.191,1.191,0,0,0-1.193,1.193M5.93,18.048a5.465,5.465,0,0,1-1.847-.341,3.071,3.071,0,0,1-1.143-.742A3.047,3.047,0,0,1,2.2,15.822a5.5,5.5,0,0,1-.341-1.847c-.049-1.05-.06-1.363-.06-4.023s.011-2.973.06-4.023A5.644,5.644,0,0,1,2.2,4.083,3.071,3.071,0,0,1,2.94,2.94,3.047,3.047,0,0,1,4.083,2.2,5.5,5.5,0,0,1,5.93,1.858c1.05-.049,1.363-.06,4.023-.06s2.973.011,4.023.06a5.644,5.644,0,0,1,1.847.341,3.273,3.273,0,0,1,1.885,1.885,5.5,5.5,0,0,1,.341,1.847c.049,1.05.055,1.363.055,4.023s-.011,2.973-.055,4.023a5.61,5.61,0,0,1-.341,1.847,3.273,3.273,0,0,1-1.885,1.885,5.5,5.5,0,0,1-1.847.341c-1.05.049-1.363.06-4.023.06S6.98,18.1,5.93,18.048M5.847.06A7.269,7.269,0,0,0,3.435.522,4.861,4.861,0,0,0,1.671,1.671,4.815,4.815,0,0,0,.522,3.435,7.269,7.269,0,0,0,.06,5.847C.011,6.908,0,7.249,0,9.947s.011,3.039.06,4.1a7.276,7.276,0,0,0,.462,2.418,4.861,4.861,0,0,0,1.149,1.764,4.861,4.861,0,0,0,1.764,1.149,7.3,7.3,0,0,0,2.413.462c1.061.049,1.4.06,4.1.06s3.039-.011,4.1-.06a7.336,7.336,0,0,0,2.418-.462,5.091,5.091,0,0,0,2.913-2.913,7.3,7.3,0,0,0,.462-2.413c.049-1.061.06-1.4.06-4.1s-.011-3.039-.06-4.1a7.269,7.269,0,0,0-.462-2.413,4.861,4.861,0,0,0-1.149-1.764A4.861,4.861,0,0,0,16.465.528,7.117,7.117,0,0,0,14.053.06C12.992.011,12.651,0,9.947,0s-3.039.011-4.1.06"/>
</svg>
