<svg xmlns="http://www.w3.org/2000/svg" viewBox="0 0 22.7 16.1">
  <defs>
    <style>
      .cls-1 {
        fill: #fff;
      }
    </style>
  </defs>
  <g id="Group_414659" data-name="Group 414659" transform="translate(-101.8 -1.1)">
    <path id="Path_141" data-name="Path 141" class="cls-1" d="M124.3,4.6a4.822,4.822,0,0,0-.9-2.3,3.615,3.615,0,0,0-2.3-1c-3.2-.2-8-.2-8-.2h0s-4.8,0-8,.2a3.823,3.823,0,0,0-2.3,1,5.532,5.532,0,0,0-.8,2.3s-.2,1.8-.2,3.7V10c0,1.8.2,3.7.2,3.7a4.822,4.822,0,0,0,.9,2.3,4.045,4.045,0,0,0,2.5,1c1.8.2,7.7.2,7.7.2s4.8,0,8-.2a3.823,3.823,0,0,0,2.3-1,4.822,4.822,0,0,0,.9-2.3s.2-1.8.2-3.7V8.3C124.5,6.4,124.3,4.6,124.3,4.6Zm-13.5,7.5V5.7l6.1,3.2Z"/>
  </g>
</svg>
